<svg width="35" height="35" viewBox="0 0 35 35" fill="none" xmlns="http://www.w3.org/2000/svg">
<g clip-path="url(#clip0_579_10217)">
<path d="M33.0045 17.334C33.0012 18.7316 32.9854 20.1292 32.9663 21.5268C32.9432 23.2129 32.9171 24.8997 32.4943 26.557C32.0509 28.2948 31.1763 29.7936 29.8156 30.9032C28.3818 32.0725 26.6487 32.6871 24.7782 32.8008C22.2973 32.9517 19.8153 33.0113 17.3333 33.0055C14.8513 33.0113 12.3693 32.9517 9.88845 32.8008C8.01792 32.6871 6.28485 32.0725 4.851 30.9032C3.49034 29.7936 2.61577 28.2948 2.17231 26.557C1.74943 24.8997 1.7234 23.2129 1.70036 21.5268C1.68124 20.1292 1.66536 18.7316 1.66211 17.334C1.66536 15.9364 1.68124 14.5388 1.70036 13.1412C1.7234 11.4551 1.74943 9.76827 2.17231 8.11103C2.61577 6.37318 3.49034 4.87439 4.851 3.76481C6.28485 2.59553 8.01792 1.98094 9.88845 1.86718C12.3693 1.71631 14.8513 1.65668 17.3333 1.66252C19.8153 1.65668 22.2973 1.71631 24.7782 1.86718C26.6487 1.98094 28.3818 2.59553 29.8156 3.76481C31.1763 4.87439 32.0509 6.37318 32.4943 8.11103C32.9171 9.76827 32.9432 11.4551 32.9663 13.1412C32.9854 14.5388 33.0012 15.9364 33.0045 17.334Z" stroke="#1DCC66" stroke-width="2.65625" stroke-miterlimit="10"/>
<path d="M24.2393 17.334C24.2393 21.1849 21.1175 24.3066 17.2666 24.3066C13.4157 24.3066 10.2939 21.1849 10.2939 17.334C10.2939 13.4831 13.4157 10.3613 17.2666 10.3613C21.1175 10.3613 24.2393 13.4831 24.2393 17.334Z" stroke="#1DCC66" stroke-width="2.65625" stroke-miterlimit="10"/>
<path d="M26.1775 10.9615C27.4329 10.9615 28.4507 9.94367 28.4507 8.68823C28.4507 7.4328 27.4329 6.41499 26.1775 6.41499C24.9221 6.41499 23.9043 7.4328 23.9043 8.68823C23.9043 9.94367 24.9221 10.9615 26.1775 10.9615Z" fill="#F3CA9A" stroke="#1DCC66" stroke-width="0.0770589"/>
</g>
<defs>
<clipPath id="clip0_579_10217">
<rect width="34" height="34" fill="white" transform="translate(0.333496 0.333984)"/>
</clipPath>
</defs>
</svg>
