<svg width="35" height="30" viewBox="0 0 35 30" fill="none" xmlns="http://www.w3.org/2000/svg">
<path d="M32.2646 1.33301C33.2507 1.33301 33.9946 2.20295 33.5967 3.82104L28.77 26.7005C28.4327 28.3273 27.4552 28.7188 26.1058 27.9619L14.5926 19.4104C14.5479 19.3782 14.5116 19.3357 14.4865 19.2866C14.4614 19.2374 14.4483 19.1829 14.4483 19.1277C14.4483 19.0724 14.4614 19.0179 14.4865 18.9688C14.5116 18.9196 14.5479 18.8772 14.5926 18.8449L27.8877 6.77015C28.4932 6.23078 27.758 5.9698 26.9621 6.45697L10.2762 17.0442C10.2256 17.0774 10.1682 17.0985 10.1082 17.1061C10.0483 17.1136 9.98738 17.1073 9.93021 17.0877L2.84583 14.8345C1.27152 14.3734 1.27152 13.286 3.20048 12.5118L31.5467 1.5157C31.7715 1.40723 32.0156 1.34512 32.2646 1.33301Z" stroke="#1DCC66" stroke-width="2" stroke-linecap="round" stroke-linejoin="round"/>
</svg>
