<svg width="37" height="37" viewBox="0 0 37 37" fill="none" xmlns="http://www.w3.org/2000/svg">
<path d="M35.5542 18.5176C35.5542 21.3713 35.3012 23.9721 35.0124 26.0114C34.6373 28.6603 32.4975 30.7058 29.8349 30.9664C27.0098 31.243 23.0182 31.5254 18.4995 31.5254C13.9808 31.5254 9.98922 31.243 7.16414 30.9664C4.50152 30.7058 2.36173 28.6603 1.9866 26.0114C1.69783 23.9721 1.44482 21.3713 1.44482 18.5176C1.44482 15.6638 1.69783 13.063 1.9866 11.0238C2.36173 8.37488 4.50152 6.3294 7.16414 6.06874C9.98922 5.79218 13.9808 5.50977 18.4995 5.50977C23.0182 5.50977 27.0098 5.79218 29.8349 6.06874C32.4975 6.3294 34.6373 8.37488 35.0124 11.0238C35.3012 13.063 35.5542 15.6638 35.5542 18.5176Z" stroke="#1DCC66" stroke-width="2.5" stroke-miterlimit="10" stroke-linecap="round" stroke-linejoin="round"/>
<path d="M17.7407 23.6098L23.2267 20.346C24.6321 19.5098 24.6321 17.4902 23.2267 16.654L17.7407 13.3902C16.2937 12.5293 14.4526 13.5629 14.4526 15.2361V21.7639C14.4526 23.4371 16.2937 24.4707 17.7407 23.6098Z" stroke="#1DCC66" stroke-width="2.5" stroke-miterlimit="10" stroke-linecap="round" stroke-linejoin="round"/>
</svg>
